<svg id="visual" viewBox="0 0 1400 700" width="1400" height="700" xmlns="http://www.w3.org/2000/svg" xmlns:xlink="http://www.w3.org/1999/xlink" version="1.1"><rect x="0" y="0" width="1400" height="700" fill="#845ec2"></rect><path d="M0 541L33.3 545.7C66.7 550.3 133.3 559.7 200 560.3C266.7 561 333.3 553 400 542C466.7 531 533.3 517 600 514C666.7 511 733.3 519 800 528.5C866.7 538 933.3 549 1000 565.3C1066.7 581.7 1133.3 603.3 1200 606.3C1266.7 609.3 1333.3 593.7 1366.7 585.8L1400 578L1400 701L1366.7 701C1333.3 701 1266.7 701 1200 701C1133.3 701 1066.7 701 1000 701C933.3 701 866.7 701 800 701C733.3 701 666.7 701 600 701C533.3 701 466.7 701 400 701C333.3 701 266.7 701 200 701C133.3 701 66.7 701 33.3 701L0 701Z" fill="#fefedf" stroke-linecap="round" stroke-linejoin="miter"></path></svg>