<svg id="visual" viewBox="0 0 1400 700" width="1400" height="700" xmlns="http://www.w3.org/2000/svg" xmlns:xlink="http://www.w3.org/1999/xlink" version="1.1"><rect x="0" y="0" width="1400" height="700" fill="#845ec2"></rect><path d="M0 393L33.3 381.7C66.7 370.3 133.3 347.7 200 346.3C266.7 345 333.3 365 400 392.5C466.7 420 533.3 455 600 462.5C666.7 470 733.3 450 800 426C866.7 402 933.3 374 1000 332.8C1066.7 291.7 1133.3 237.3 1200 230C1266.7 222.7 1333.3 262.3 1366.7 282.2L1400 302L1400 0L1366.7 0C1333.3 0 1266.7 0 1200 0C1133.3 0 1066.7 0 1000 0C933.3 0 866.7 0 800 0C733.3 0 666.7 0 600 0C533.3 0 466.7 0 400 0C333.3 0 266.7 0 200 0C133.3 0 66.7 0 33.3 0L0 0Z" fill="#fefedf" stroke-linecap="round" stroke-linejoin="miter"></path></svg>